<svg width="1505" height="890" viewBox="0 0 1505 890" fill="none" xmlns="http://www.w3.org/2000/svg">
<path opacity="0.3" d="M631 3.00004C425.4 -14.6 202 99 116 158C-51.3335 321.667 -287 605.8 109 433C505 260.2 609.333 373 612 451C304.333 541.333 -198.8 747 250 847C811 972 1155 779 1188 701C1221 623 888 25 631 3.00004Z" fill="#2A1039" stroke="black"/>
<path opacity="0.3" d="M944.815 3.83122C739.215 -13.7688 515.815 99.8312 429.815 158.831C262.482 322.498 26.8152 606.631 422.815 433.831C818.815 261.031 923.149 373.831 925.815 451.831C618.149 542.164 115.015 747.831 563.815 847.831C1124.82 972.831 1468.82 779.831 1501.82 701.831C1534.82 623.831 1201.82 25.8312 944.815 3.83122Z" fill="#2A1039" stroke="black"/>
</svg>
